<mxfile host="app.diagrams.net" modified="2021-11-30T23:21:12.466Z" agent="5.0 (Windows NT 10.0; WOW64) AppleWebKit/537.36 (KHTML, like Gecko) Chrome/96.0.4664.45 Safari/537.36" etag="FhgoWXuHk0fCifmMO58Q" version="15.8.6" type="github">
  <diagram id="MjY0Qz1ms_FNVk63QqFb" name="Page-1">
    <mxGraphModel dx="1696" dy="729" grid="1" gridSize="10" guides="1" tooltips="1" connect="1" arrows="1" fold="1" page="1" pageScale="1" pageWidth="850" pageHeight="1100" math="0" shadow="0">
      <root>
        <mxCell id="0" />
        <mxCell id="1" parent="0" />
        <mxCell id="0MT2r-zV3COQlZAHU2vA-2" value="" style="verticalLabelPosition=bottom;verticalAlign=top;html=1;shape=mxgraph.basic.rect;fillColor2=none;strokeWidth=1;size=20;indent=5;" parent="1" vertex="1">
          <mxGeometry x="276" y="330" width="400" height="280" as="geometry" />
        </mxCell>
        <mxCell id="0MT2r-zV3COQlZAHU2vA-3" value="" style="shape=partialRectangle;whiteSpace=wrap;html=1;right=0;top=0;bottom=0;fillColor=none;routingCenterX=-0.5;" parent="1" vertex="1">
          <mxGeometry x="356" y="550" width="120" height="60" as="geometry" />
        </mxCell>
        <mxCell id="0MT2r-zV3COQlZAHU2vA-4" value="" style="shape=partialRectangle;whiteSpace=wrap;html=1;right=0;top=0;bottom=0;fillColor=none;routingCenterX=-0.5;" parent="1" vertex="1">
          <mxGeometry x="436" y="550" width="120" height="60" as="geometry" />
        </mxCell>
        <mxCell id="0MT2r-zV3COQlZAHU2vA-5" value="" style="shape=partialRectangle;whiteSpace=wrap;html=1;right=0;top=0;bottom=0;fillColor=none;routingCenterX=-0.5;" parent="1" vertex="1">
          <mxGeometry x="516" y="550" width="120" height="60" as="geometry" />
        </mxCell>
        <mxCell id="0MT2r-zV3COQlZAHU2vA-6" value="" style="shape=partialRectangle;whiteSpace=wrap;html=1;right=0;top=0;bottom=0;fillColor=none;routingCenterX=-0.5;" parent="1" vertex="1">
          <mxGeometry x="596" y="550" width="120" height="60" as="geometry" />
        </mxCell>
        <mxCell id="0MT2r-zV3COQlZAHU2vA-7" value="" style="shape=partialRectangle;whiteSpace=wrap;html=1;top=0;bottom=0;fillColor=none;" parent="1" vertex="1">
          <mxGeometry x="316" y="330" width="120" height="60" as="geometry" />
        </mxCell>
        <mxCell id="0MT2r-zV3COQlZAHU2vA-8" value="" style="shape=partialRectangle;whiteSpace=wrap;html=1;top=0;bottom=0;fillColor=none;" parent="1" vertex="1">
          <mxGeometry x="356" y="330" width="120" height="60" as="geometry" />
        </mxCell>
        <mxCell id="0MT2r-zV3COQlZAHU2vA-9" value="" style="shape=partialRectangle;whiteSpace=wrap;html=1;top=0;bottom=0;fillColor=none;" parent="1" vertex="1">
          <mxGeometry x="396" y="330" width="120" height="60" as="geometry" />
        </mxCell>
        <mxCell id="0MT2r-zV3COQlZAHU2vA-10" value="" style="shape=partialRectangle;whiteSpace=wrap;html=1;top=0;bottom=0;fillColor=none;" parent="1" vertex="1">
          <mxGeometry x="516" y="330" width="40" height="60" as="geometry" />
        </mxCell>
        <mxCell id="0MT2r-zV3COQlZAHU2vA-11" value="" style="shape=partialRectangle;whiteSpace=wrap;html=1;top=0;bottom=0;fillColor=none;" parent="1" vertex="1">
          <mxGeometry x="556" y="330" width="120" height="60" as="geometry" />
        </mxCell>
        <mxCell id="0MT2r-zV3COQlZAHU2vA-12" value="" style="shape=partialRectangle;whiteSpace=wrap;html=1;top=0;bottom=0;fillColor=none;" parent="1" vertex="1">
          <mxGeometry x="596" y="330" width="40" height="60" as="geometry" />
        </mxCell>
        <mxCell id="0MT2r-zV3COQlZAHU2vA-13" value="" style="verticalLabelPosition=bottom;verticalAlign=top;html=1;shape=mxgraph.basic.rect;fillColor2=none;strokeWidth=1;size=20;indent=5;" parent="1" vertex="1">
          <mxGeometry x="276" y="374" width="400" height="200" as="geometry" />
        </mxCell>
        <mxCell id="0MT2r-zV3COQlZAHU2vA-14" value="&lt;font style=&quot;font-size: 24px&quot;&gt;+&lt;/font&gt;" style="text;html=1;align=center;verticalAlign=middle;resizable=0;points=[];autosize=1;strokeColor=none;fillColor=none;" parent="1" vertex="1">
          <mxGeometry x="281" y="350" width="30" height="20" as="geometry" />
        </mxCell>
        <mxCell id="0MT2r-zV3COQlZAHU2vA-15" value="" style="ellipse;whiteSpace=wrap;html=1;aspect=fixed;" parent="1" vertex="1">
          <mxGeometry x="291" y="337" width="10" height="10" as="geometry" />
        </mxCell>
        <mxCell id="0MT2r-zV3COQlZAHU2vA-16" value="&lt;span style=&quot;font-size: 24px&quot;&gt;-&lt;/span&gt;" style="text;html=1;align=center;verticalAlign=middle;resizable=0;points=[];autosize=1;strokeColor=none;fillColor=none;" parent="1" vertex="1">
          <mxGeometry x="326" y="347" width="20" height="20" as="geometry" />
        </mxCell>
        <mxCell id="0MT2r-zV3COQlZAHU2vA-17" value="" style="ellipse;whiteSpace=wrap;html=1;aspect=fixed;" parent="1" vertex="1">
          <mxGeometry x="331" y="337" width="10" height="10" as="geometry" />
        </mxCell>
        <mxCell id="0MT2r-zV3COQlZAHU2vA-18" value="&lt;font style=&quot;font-size: 14px&quot;&gt;I0.0&lt;/font&gt;" style="text;html=1;align=center;verticalAlign=middle;resizable=0;points=[];autosize=1;strokeColor=none;fillColor=none;" parent="1" vertex="1">
          <mxGeometry x="356" y="350" width="40" height="20" as="geometry" />
        </mxCell>
        <mxCell id="0MT2r-zV3COQlZAHU2vA-19" value="" style="ellipse;whiteSpace=wrap;html=1;aspect=fixed;" parent="1" vertex="1">
          <mxGeometry x="370" y="337" width="10" height="10" as="geometry" />
        </mxCell>
        <mxCell id="0MT2r-zV3COQlZAHU2vA-20" value="&lt;span style=&quot;font-size: 14px&quot;&gt;I0.1&lt;/span&gt;" style="text;html=1;align=center;verticalAlign=middle;resizable=0;points=[];autosize=1;strokeColor=none;fillColor=none;" parent="1" vertex="1">
          <mxGeometry x="396" y="350" width="40" height="20" as="geometry" />
        </mxCell>
        <mxCell id="0MT2r-zV3COQlZAHU2vA-21" value="" style="ellipse;whiteSpace=wrap;html=1;aspect=fixed;" parent="1" vertex="1">
          <mxGeometry x="411" y="337" width="10" height="10" as="geometry" />
        </mxCell>
        <mxCell id="0MT2r-zV3COQlZAHU2vA-22" value="&lt;font style=&quot;font-size: 14px&quot;&gt;I0.2&lt;/font&gt;" style="text;html=1;align=center;verticalAlign=middle;resizable=0;points=[];autosize=1;strokeColor=none;fillColor=none;" parent="1" vertex="1">
          <mxGeometry x="436" y="350" width="40" height="20" as="geometry" />
        </mxCell>
        <mxCell id="0MT2r-zV3COQlZAHU2vA-23" value="" style="ellipse;whiteSpace=wrap;html=1;aspect=fixed;" parent="1" vertex="1">
          <mxGeometry x="451" y="337" width="10" height="10" as="geometry" />
        </mxCell>
        <mxCell id="0MT2r-zV3COQlZAHU2vA-24" value="&lt;font style=&quot;font-size: 14px&quot;&gt;I0.3&lt;/font&gt;" style="text;html=1;align=center;verticalAlign=middle;resizable=0;points=[];autosize=1;strokeColor=none;fillColor=none;" parent="1" vertex="1">
          <mxGeometry x="476" y="350" width="40" height="20" as="geometry" />
        </mxCell>
        <mxCell id="0MT2r-zV3COQlZAHU2vA-25" value="" style="ellipse;whiteSpace=wrap;html=1;aspect=fixed;" parent="1" vertex="1">
          <mxGeometry x="490" y="337" width="10" height="10" as="geometry" />
        </mxCell>
        <mxCell id="0MT2r-zV3COQlZAHU2vA-26" value="&lt;font style=&quot;font-size: 14px&quot;&gt;I0.4&lt;/font&gt;" style="text;html=1;align=center;verticalAlign=middle;resizable=0;points=[];autosize=1;strokeColor=none;fillColor=none;" parent="1" vertex="1">
          <mxGeometry x="516" y="350" width="40" height="20" as="geometry" />
        </mxCell>
        <mxCell id="0MT2r-zV3COQlZAHU2vA-27" value="" style="ellipse;whiteSpace=wrap;html=1;aspect=fixed;" parent="1" vertex="1">
          <mxGeometry x="531" y="337" width="10" height="10" as="geometry" />
        </mxCell>
        <mxCell id="0MT2r-zV3COQlZAHU2vA-28" value="&lt;font style=&quot;font-size: 14px&quot;&gt;I0.5&lt;/font&gt;" style="text;html=1;align=center;verticalAlign=middle;resizable=0;points=[];autosize=1;strokeColor=none;fillColor=none;" parent="1" vertex="1">
          <mxGeometry x="556" y="350" width="40" height="20" as="geometry" />
        </mxCell>
        <mxCell id="0MT2r-zV3COQlZAHU2vA-29" value="" style="ellipse;whiteSpace=wrap;html=1;aspect=fixed;" parent="1" vertex="1">
          <mxGeometry x="571" y="337" width="10" height="10" as="geometry" />
        </mxCell>
        <mxCell id="0MT2r-zV3COQlZAHU2vA-30" value="&lt;font style=&quot;font-size: 14px&quot;&gt;I0.6&lt;/font&gt;" style="text;html=1;align=center;verticalAlign=middle;resizable=0;points=[];autosize=1;strokeColor=none;fillColor=none;" parent="1" vertex="1">
          <mxGeometry x="596" y="350" width="40" height="20" as="geometry" />
        </mxCell>
        <mxCell id="0MT2r-zV3COQlZAHU2vA-31" value="" style="ellipse;whiteSpace=wrap;html=1;aspect=fixed;" parent="1" vertex="1">
          <mxGeometry x="610" y="337" width="10" height="10" as="geometry" />
        </mxCell>
        <mxCell id="0MT2r-zV3COQlZAHU2vA-32" value="&lt;font style=&quot;font-size: 14px&quot;&gt;I0.7&lt;/font&gt;" style="text;html=1;align=center;verticalAlign=middle;resizable=0;points=[];autosize=1;strokeColor=none;fillColor=none;" parent="1" vertex="1">
          <mxGeometry x="636" y="350" width="40" height="20" as="geometry" />
        </mxCell>
        <mxCell id="0MT2r-zV3COQlZAHU2vA-33" value="" style="ellipse;whiteSpace=wrap;html=1;aspect=fixed;" parent="1" vertex="1">
          <mxGeometry x="651" y="337" width="10" height="10" as="geometry" />
        </mxCell>
        <mxCell id="0MT2r-zV3COQlZAHU2vA-34" value="" style="pointerEvents=1;verticalLabelPosition=bottom;shadow=0;dashed=0;align=center;html=1;verticalAlign=top;shape=mxgraph.electrical.electro-mechanical.make_contact;" parent="1" vertex="1">
          <mxGeometry x="291" y="594" width="45" height="10" as="geometry" />
        </mxCell>
        <mxCell id="0MT2r-zV3COQlZAHU2vA-35" value="" style="pointerEvents=1;verticalLabelPosition=bottom;shadow=0;dashed=0;align=center;html=1;verticalAlign=top;shape=mxgraph.electrical.electro-mechanical.make_contact;" parent="1" vertex="1">
          <mxGeometry x="375" y="594" width="45" height="10" as="geometry" />
        </mxCell>
        <mxCell id="0MT2r-zV3COQlZAHU2vA-36" value="" style="pointerEvents=1;verticalLabelPosition=bottom;shadow=0;dashed=0;align=center;html=1;verticalAlign=top;shape=mxgraph.electrical.electro-mechanical.make_contact;" parent="1" vertex="1">
          <mxGeometry x="452" y="594" width="45" height="10" as="geometry" />
        </mxCell>
        <mxCell id="0MT2r-zV3COQlZAHU2vA-37" value="" style="pointerEvents=1;verticalLabelPosition=bottom;shadow=0;dashed=0;align=center;html=1;verticalAlign=top;shape=mxgraph.electrical.electro-mechanical.make_contact;" parent="1" vertex="1">
          <mxGeometry x="536" y="594" width="45" height="10" as="geometry" />
        </mxCell>
        <mxCell id="0MT2r-zV3COQlZAHU2vA-38" value="" style="pointerEvents=1;verticalLabelPosition=bottom;shadow=0;dashed=0;align=center;html=1;verticalAlign=top;shape=mxgraph.electrical.electro-mechanical.make_contact;" parent="1" vertex="1">
          <mxGeometry x="610" y="594" width="45" height="10" as="geometry" />
        </mxCell>
        <mxCell id="0MT2r-zV3COQlZAHU2vA-39" value="&lt;font style=&quot;font-size: 14px&quot;&gt;&amp;nbsp;O 0.0&lt;/font&gt;" style="text;html=1;align=center;verticalAlign=middle;resizable=0;points=[];autosize=1;strokeColor=none;fillColor=none;" parent="1" vertex="1">
          <mxGeometry x="291" y="574" width="50" height="20" as="geometry" />
        </mxCell>
        <mxCell id="0MT2r-zV3COQlZAHU2vA-40" value="&lt;span style=&quot;font-size: 14px&quot;&gt;O 0.1&lt;/span&gt;" style="text;html=1;align=center;verticalAlign=middle;resizable=0;points=[];autosize=1;strokeColor=none;fillColor=none;" parent="1" vertex="1">
          <mxGeometry x="374" y="574" width="50" height="20" as="geometry" />
        </mxCell>
        <mxCell id="0MT2r-zV3COQlZAHU2vA-41" value="&lt;font style=&quot;font-size: 14px&quot;&gt;O 0.2&lt;/font&gt;" style="text;html=1;align=center;verticalAlign=middle;resizable=0;points=[];autosize=1;strokeColor=none;fillColor=none;" parent="1" vertex="1">
          <mxGeometry x="455" y="574" width="50" height="20" as="geometry" />
        </mxCell>
        <mxCell id="0MT2r-zV3COQlZAHU2vA-42" value="&lt;font style=&quot;font-size: 14px&quot;&gt;O 0.3&lt;/font&gt;" style="text;html=1;align=center;verticalAlign=middle;resizable=0;points=[];autosize=1;strokeColor=none;fillColor=none;" parent="1" vertex="1">
          <mxGeometry x="539" y="574" width="50" height="20" as="geometry" />
        </mxCell>
        <mxCell id="0MT2r-zV3COQlZAHU2vA-43" value="" style="edgeStyle=none;shape=link;rounded=0;orthogonalLoop=1;jettySize=auto;html=1;strokeColor=#000000;" parent="1" source="0MT2r-zV3COQlZAHU2vA-44" target="0MT2r-zV3COQlZAHU2vA-13" edge="1">
          <mxGeometry relative="1" as="geometry" />
        </mxCell>
        <mxCell id="0MT2r-zV3COQlZAHU2vA-44" value="&lt;font style=&quot;font-size: 14px&quot;&gt;O 0.4&lt;/font&gt;" style="text;html=1;align=center;verticalAlign=middle;resizable=0;points=[];autosize=1;strokeColor=none;fillColor=none;" parent="1" vertex="1">
          <mxGeometry x="614" y="574" width="50" height="20" as="geometry" />
        </mxCell>
        <mxCell id="0MT2r-zV3COQlZAHU2vA-45" value="" style="ellipse;whiteSpace=wrap;html=1;aspect=fixed;" parent="1" vertex="1">
          <mxGeometry x="282" y="584" width="10" height="10" as="geometry" />
        </mxCell>
        <mxCell id="0MT2r-zV3COQlZAHU2vA-46" value="" style="ellipse;whiteSpace=wrap;html=1;aspect=fixed;" parent="1" vertex="1">
          <mxGeometry x="340" y="584" width="10" height="10" as="geometry" />
        </mxCell>
        <mxCell id="0MT2r-zV3COQlZAHU2vA-47" value="" style="ellipse;whiteSpace=wrap;html=1;aspect=fixed;" parent="1" vertex="1">
          <mxGeometry x="363.5" y="584" width="10" height="10" as="geometry" />
        </mxCell>
        <mxCell id="0MT2r-zV3COQlZAHU2vA-48" value="" style="ellipse;whiteSpace=wrap;html=1;aspect=fixed;" parent="1" vertex="1">
          <mxGeometry x="421.5" y="584" width="10" height="10" as="geometry" />
        </mxCell>
        <mxCell id="0MT2r-zV3COQlZAHU2vA-49" value="" style="ellipse;whiteSpace=wrap;html=1;aspect=fixed;" parent="1" vertex="1">
          <mxGeometry x="442" y="584" width="10" height="10" as="geometry" />
        </mxCell>
        <mxCell id="0MT2r-zV3COQlZAHU2vA-50" value="" style="ellipse;whiteSpace=wrap;html=1;aspect=fixed;" parent="1" vertex="1">
          <mxGeometry x="500" y="584" width="10" height="10" as="geometry" />
        </mxCell>
        <mxCell id="0MT2r-zV3COQlZAHU2vA-51" value="" style="ellipse;whiteSpace=wrap;html=1;aspect=fixed;" parent="1" vertex="1">
          <mxGeometry x="524.5" y="584" width="10" height="10" as="geometry" />
        </mxCell>
        <mxCell id="0MT2r-zV3COQlZAHU2vA-52" value="" style="ellipse;whiteSpace=wrap;html=1;aspect=fixed;" parent="1" vertex="1">
          <mxGeometry x="582.5" y="584" width="10" height="10" as="geometry" />
        </mxCell>
        <mxCell id="0MT2r-zV3COQlZAHU2vA-53" value="" style="ellipse;whiteSpace=wrap;html=1;aspect=fixed;" parent="1" vertex="1">
          <mxGeometry x="602" y="584" width="10" height="10" as="geometry" />
        </mxCell>
        <mxCell id="0MT2r-zV3COQlZAHU2vA-54" value="" style="ellipse;whiteSpace=wrap;html=1;aspect=fixed;" parent="1" vertex="1">
          <mxGeometry x="662" y="584" width="10" height="10" as="geometry" />
        </mxCell>
        <mxCell id="0MT2r-zV3COQlZAHU2vA-55" value="" style="ellipse;whiteSpace=wrap;html=1;aspect=fixed;" parent="1" vertex="1">
          <mxGeometry x="175" y="330" width="20" height="20" as="geometry" />
        </mxCell>
        <mxCell id="0MT2r-zV3COQlZAHU2vA-56" value="" style="ellipse;whiteSpace=wrap;html=1;aspect=fixed;" parent="1" vertex="1">
          <mxGeometry x="326" y="200" width="20" height="20" as="geometry" />
        </mxCell>
        <mxCell id="0MT2r-zV3COQlZAHU2vA-57" value="&lt;font style=&quot;font-size: 24px&quot;&gt;+&lt;/font&gt;" style="text;html=1;align=center;verticalAlign=middle;resizable=0;points=[];autosize=1;strokeColor=none;fillColor=none;" parent="1" vertex="1">
          <mxGeometry x="170" y="330" width="30" height="20" as="geometry" />
        </mxCell>
        <mxCell id="0MT2r-zV3COQlZAHU2vA-58" value="&lt;span style=&quot;font-size: 24px&quot;&gt;-&lt;/span&gt;" style="text;html=1;align=center;verticalAlign=middle;resizable=0;points=[];autosize=1;strokeColor=none;fillColor=none;" parent="1" vertex="1">
          <mxGeometry x="326" y="200" width="20" height="20" as="geometry" />
        </mxCell>
        <mxCell id="0MT2r-zV3COQlZAHU2vA-59" value="" style="endArrow=none;html=1;strokeColor=#FF0000;" parent="1" edge="1">
          <mxGeometry width="50" height="50" relative="1" as="geometry">
            <mxPoint x="287" y="650.0000000000002" as="sourcePoint" />
            <mxPoint x="286.8000000000002" y="594.0000000000002" as="targetPoint" />
            <Array as="points" />
          </mxGeometry>
        </mxCell>
        <mxCell id="0MT2r-zV3COQlZAHU2vA-60" value="" style="endArrow=none;html=1;strokeColor=#FF0000;" parent="1" edge="1">
          <mxGeometry width="50" height="50" relative="1" as="geometry">
            <mxPoint x="368" y="650.0000000000002" as="sourcePoint" />
            <mxPoint x="368.3000000000002" y="594.0000000000002" as="targetPoint" />
            <Array as="points" />
          </mxGeometry>
        </mxCell>
        <mxCell id="0MT2r-zV3COQlZAHU2vA-61" value="" style="endArrow=none;html=1;strokeColor=#FF0000;" parent="1" edge="1">
          <mxGeometry width="50" height="50" relative="1" as="geometry">
            <mxPoint x="529" y="650.0000000000002" as="sourcePoint" />
            <mxPoint x="529.3000000000002" y="594.0000000000002" as="targetPoint" />
            <Array as="points" />
          </mxGeometry>
        </mxCell>
        <mxCell id="0MT2r-zV3COQlZAHU2vA-62" value="" style="endArrow=none;html=1;strokeColor=#FF0000;" parent="1" edge="1">
          <mxGeometry width="50" height="50" relative="1" as="geometry">
            <mxPoint x="296" y="340" as="sourcePoint" />
            <mxPoint x="196" y="340" as="targetPoint" />
            <Array as="points" />
          </mxGeometry>
        </mxCell>
        <mxCell id="0MT2r-zV3COQlZAHU2vA-63" value="" style="endArrow=none;html=1;strokeColor=#FF0000;" parent="1" edge="1">
          <mxGeometry width="50" height="50" relative="1" as="geometry">
            <mxPoint x="606" y="650.0000000000002" as="sourcePoint" />
            <mxPoint x="606.4099999999999" y="594.0000000000002" as="targetPoint" />
            <Array as="points" />
          </mxGeometry>
        </mxCell>
        <mxCell id="0MT2r-zV3COQlZAHU2vA-64" value="" style="endArrow=none;html=1;strokeColor=#00CC66;" parent="1" edge="1">
          <mxGeometry width="50" height="50" relative="1" as="geometry">
            <mxPoint x="345" y="720" as="sourcePoint" />
            <mxPoint x="344.7999999999997" y="592.1999999999996" as="targetPoint" />
            <Array as="points" />
          </mxGeometry>
        </mxCell>
        <mxCell id="0MT2r-zV3COQlZAHU2vA-65" value="" style="endArrow=none;html=1;strokeColor=#00CC66;startArrow=none;" parent="1" source="0MT2r-zV3COQlZAHU2vA-75" edge="1">
          <mxGeometry width="50" height="50" relative="1" as="geometry">
            <mxPoint x="426" y="660" as="sourcePoint" />
            <mxPoint x="426.3000000000002" y="592.1999999999996" as="targetPoint" />
            <Array as="points" />
          </mxGeometry>
        </mxCell>
        <mxCell id="0MT2r-zV3COQlZAHU2vA-66" value="" style="endArrow=none;html=1;strokeColor=#FF0000;" parent="1" edge="1">
          <mxGeometry width="50" height="50" relative="1" as="geometry">
            <mxPoint x="246" y="650.0000000000002" as="sourcePoint" />
            <mxPoint x="606" y="650.0000000000002" as="targetPoint" />
            <Array as="points" />
          </mxGeometry>
        </mxCell>
        <mxCell id="0MT2r-zV3COQlZAHU2vA-67" value="" style="endArrow=none;html=1;strokeColor=#00CC66;" parent="1" edge="1">
          <mxGeometry width="50" height="50" relative="1" as="geometry">
            <mxPoint x="340" y="240" as="sourcePoint" />
            <mxPoint x="225" y="240" as="targetPoint" />
            <Array as="points" />
          </mxGeometry>
        </mxCell>
        <mxCell id="0MT2r-zV3COQlZAHU2vA-68" value="" style="endArrow=none;html=1;strokeColor=#00CC66;" parent="1" edge="1">
          <mxGeometry width="50" height="50" relative="1" as="geometry">
            <mxPoint x="226" y="720" as="sourcePoint" />
            <mxPoint x="226" y="240" as="targetPoint" />
            <Array as="points" />
          </mxGeometry>
        </mxCell>
        <mxCell id="0MT2r-zV3COQlZAHU2vA-69" value="" style="endArrow=none;html=1;strokeColor=#00CC66;entryX=0.517;entryY=1.064;entryDx=0;entryDy=0;entryPerimeter=0;exitX=0.5;exitY=0;exitDx=0;exitDy=0;" parent="1" source="0MT2r-zV3COQlZAHU2vA-17" target="0MT2r-zV3COQlZAHU2vA-58" edge="1">
          <mxGeometry width="50" height="50" relative="1" as="geometry">
            <mxPoint x="336" y="290" as="sourcePoint" />
            <mxPoint x="225" y="292" as="targetPoint" />
            <Array as="points" />
          </mxGeometry>
        </mxCell>
        <mxCell id="0MT2r-zV3COQlZAHU2vA-70" value="" style="endArrow=none;html=1;strokeColor=#FF0000;" parent="1" edge="1">
          <mxGeometry width="50" height="50" relative="1" as="geometry">
            <mxPoint x="246.20000000000005" y="650.0000000000002" as="sourcePoint" />
            <mxPoint x="246" y="250" as="targetPoint" />
            <Array as="points" />
          </mxGeometry>
        </mxCell>
        <mxCell id="0MT2r-zV3COQlZAHU2vA-71" value="" style="endArrow=none;html=1;strokeColor=#FF0000;entryX=1;entryY=0.925;entryDx=0;entryDy=0;entryPerimeter=0;" parent="1" edge="1">
          <mxGeometry width="50" height="50" relative="1" as="geometry">
            <mxPoint x="246.50000000000023" y="250" as="sourcePoint" />
            <mxPoint x="614.6624999999999" y="248.25" as="targetPoint" />
            <Array as="points" />
          </mxGeometry>
        </mxCell>
        <mxCell id="0MT2r-zV3COQlZAHU2vA-74" value="" style="pointerEvents=1;verticalLabelPosition=bottom;shadow=0;dashed=0;align=center;html=1;verticalAlign=top;shape=mxgraph.electrical.miscellaneous.light_bulb;strokeColor=#000000;rotation=-180;" parent="1" vertex="1">
          <mxGeometry x="333" y="680" width="24" height="20" as="geometry" />
        </mxCell>
        <mxCell id="0MT2r-zV3COQlZAHU2vA-75" value="" style="pointerEvents=1;verticalLabelPosition=bottom;shadow=0;dashed=0;align=center;html=1;verticalAlign=top;shape=mxgraph.electrical.miscellaneous.light_bulb;strokeColor=#000000;rotation=-181;" parent="1" vertex="1">
          <mxGeometry x="412" y="680" width="24" height="20" as="geometry" />
        </mxCell>
        <mxCell id="0MT2r-zV3COQlZAHU2vA-76" value="" style="endArrow=none;html=1;strokeColor=#00CC66;" parent="1" edge="1">
          <mxGeometry width="50" height="50" relative="1" as="geometry">
            <mxPoint x="590" y="720" as="sourcePoint" />
            <mxPoint x="225" y="720" as="targetPoint" />
            <Array as="points" />
          </mxGeometry>
        </mxCell>
        <mxCell id="0MT2r-zV3COQlZAHU2vA-77" value="" style="endArrow=none;html=1;strokeColor=#00CC66;" parent="1" edge="1">
          <mxGeometry width="50" height="50" relative="1" as="geometry">
            <mxPoint x="426" y="720" as="sourcePoint" />
            <mxPoint x="426" y="700.0000000000002" as="targetPoint" />
            <Array as="points" />
          </mxGeometry>
        </mxCell>
        <mxCell id="0MT2r-zV3COQlZAHU2vA-78" value="&lt;span style=&quot;font-size: 10px&quot;&gt;L1&lt;/span&gt;" style="text;html=1;strokeColor=none;fillColor=none;align=center;verticalAlign=middle;whiteSpace=wrap;rounded=0;" parent="1" vertex="1">
          <mxGeometry x="431.5" y="700" width="40" height="20" as="geometry" />
        </mxCell>
        <mxCell id="0MT2r-zV3COQlZAHU2vA-79" value="&lt;span style=&quot;font-size: 10px&quot;&gt;ES&lt;/span&gt;" style="text;html=1;strokeColor=none;fillColor=none;align=center;verticalAlign=middle;whiteSpace=wrap;rounded=0;" parent="1" vertex="1">
          <mxGeometry x="346" y="700" width="40" height="20" as="geometry" />
        </mxCell>
        <mxCell id="0MT2r-zV3COQlZAHU2vA-80" value="" style="endArrow=none;html=1;strokeColor=#FF0000;" parent="1" edge="1">
          <mxGeometry width="50" height="50" relative="1" as="geometry">
            <mxPoint x="446.5" y="650.0000000000002" as="sourcePoint" />
            <mxPoint x="446.8000000000002" y="594.0000000000002" as="targetPoint" />
            <Array as="points" />
          </mxGeometry>
        </mxCell>
        <mxCell id="0MT2r-zV3COQlZAHU2vA-81" value="" style="ellipse;whiteSpace=wrap;html=1;aspect=fixed;" parent="1" vertex="1">
          <mxGeometry x="524" y="584" width="10" height="10" as="geometry" />
        </mxCell>
        <mxCell id="0MT2r-zV3COQlZAHU2vA-82" value="" style="endArrow=none;html=1;strokeColor=#00CC66;" parent="1" edge="1">
          <mxGeometry width="50" height="50" relative="1" as="geometry">
            <mxPoint x="505.5" y="720" as="sourcePoint" />
            <mxPoint x="505.3000000000002" y="592.1999999999996" as="targetPoint" />
            <Array as="points" />
          </mxGeometry>
        </mxCell>
        <mxCell id="0MT2r-zV3COQlZAHU2vA-83" value="" style="pointerEvents=1;verticalLabelPosition=bottom;shadow=0;dashed=0;align=center;html=1;verticalAlign=top;shape=mxgraph.electrical.miscellaneous.light_bulb;strokeColor=#000000;rotation=-180;" parent="1" vertex="1">
          <mxGeometry x="493.5" y="680" width="24" height="20" as="geometry" />
        </mxCell>
        <mxCell id="0MT2r-zV3COQlZAHU2vA-84" value="&lt;span style=&quot;font-size: 10px&quot;&gt;L2&lt;/span&gt;" style="text;html=1;strokeColor=none;fillColor=none;align=center;verticalAlign=middle;whiteSpace=wrap;rounded=0;" parent="1" vertex="1">
          <mxGeometry x="505" y="700" width="40" height="20" as="geometry" />
        </mxCell>
        <mxCell id="0MT2r-zV3COQlZAHU2vA-85" value="&lt;span style=&quot;font-size: 10px&quot;&gt;B1&lt;/span&gt;" style="text;html=1;strokeColor=none;fillColor=none;align=center;verticalAlign=middle;whiteSpace=wrap;rounded=0;" parent="1" vertex="1">
          <mxGeometry x="453.5" y="310" width="40" height="20" as="geometry" />
        </mxCell>
        <mxCell id="0MT2r-zV3COQlZAHU2vA-86" value="&lt;span style=&quot;font-size: 10px&quot;&gt;B2&lt;/span&gt;" style="text;html=1;strokeColor=none;fillColor=none;align=center;verticalAlign=middle;whiteSpace=wrap;rounded=0;" parent="1" vertex="1">
          <mxGeometry x="490" y="310" width="40" height="20" as="geometry" />
        </mxCell>
        <mxCell id="0MT2r-zV3COQlZAHU2vA-88" value="" style="endArrow=none;html=1;strokeColor=#00CC66;" parent="1" edge="1">
          <mxGeometry width="50" height="50" relative="1" as="geometry">
            <mxPoint x="505.5" y="720.0000000000005" as="sourcePoint" />
            <mxPoint x="505.3000000000002" y="592.1999999999996" as="targetPoint" />
            <Array as="points" />
          </mxGeometry>
        </mxCell>
        <mxCell id="0MT2r-zV3COQlZAHU2vA-89" value="" style="pointerEvents=1;verticalLabelPosition=bottom;shadow=0;dashed=0;align=center;html=1;verticalAlign=top;shape=mxgraph.electrical.miscellaneous.light_bulb;strokeColor=#000000;rotation=-180;" parent="1" vertex="1">
          <mxGeometry x="493.5" y="680" width="24" height="20" as="geometry" />
        </mxCell>
        <mxCell id="0MT2r-zV3COQlZAHU2vA-95" value="SE" style="text;html=1;align=center;verticalAlign=middle;resizable=0;points=[];autosize=1;strokeColor=none;fillColor=none;" parent="1" vertex="1">
          <mxGeometry x="539" y="310.5" width="30" height="20" as="geometry" />
        </mxCell>
        <mxCell id="0MT2r-zV3COQlZAHU2vA-96" value="BE" style="text;html=1;strokeColor=none;fillColor=none;align=center;verticalAlign=middle;whiteSpace=wrap;rounded=0;" parent="1" vertex="1">
          <mxGeometry x="413.5" y="310" width="40" height="20" as="geometry" />
        </mxCell>
        <mxCell id="0MT2r-zV3COQlZAHU2vA-97" value="" style="pointerEvents=1;verticalLabelPosition=bottom;shadow=0;dashed=0;align=center;html=1;verticalAlign=top;shape=mxgraph.electrical.electro-mechanical.make_contact;hachureGap=4;strokeColor=#FF0000;rotation=-90;" parent="1" vertex="1">
          <mxGeometry x="363" y="283.75" width="89" height="16" as="geometry" />
        </mxCell>
        <mxCell id="ipujFhg_b4CowNk_k0kt-1" value="" style="pointerEvents=1;verticalLabelPosition=bottom;shadow=0;dashed=0;align=center;html=1;verticalAlign=top;shape=mxgraph.electrical.electro-mechanical.make_contact;hachureGap=4;strokeColor=#FF0000;rotation=-90;" vertex="1" parent="1">
          <mxGeometry x="404.5" y="284.25" width="89" height="16" as="geometry" />
        </mxCell>
        <mxCell id="ipujFhg_b4CowNk_k0kt-2" value="" style="pointerEvents=1;verticalLabelPosition=bottom;shadow=0;dashed=0;align=center;html=1;verticalAlign=top;shape=mxgraph.electrical.electro-mechanical.make_contact;hachureGap=4;strokeColor=#FF0000;rotation=-90;" vertex="1" parent="1">
          <mxGeometry x="442" y="284.25" width="89" height="16" as="geometry" />
        </mxCell>
        <mxCell id="ipujFhg_b4CowNk_k0kt-3" value="" style="pointerEvents=1;verticalLabelPosition=bottom;shadow=0;dashed=0;align=center;html=1;verticalAlign=top;shape=mxgraph.electrical.electro-mechanical.make_contact;hachureGap=4;strokeColor=#FF0000;rotation=-90;" vertex="1" parent="1">
          <mxGeometry x="482" y="284.25" width="89" height="16" as="geometry" />
        </mxCell>
        <mxCell id="ipujFhg_b4CowNk_k0kt-5" value="SO" style="text;html=1;align=center;verticalAlign=middle;resizable=0;points=[];autosize=1;strokeColor=none;fillColor=none;" vertex="1" parent="1">
          <mxGeometry x="581.5" y="310" width="30" height="20" as="geometry" />
        </mxCell>
        <mxCell id="ipujFhg_b4CowNk_k0kt-6" value="" style="pointerEvents=1;verticalLabelPosition=bottom;shadow=0;dashed=0;align=center;html=1;verticalAlign=top;shape=mxgraph.electrical.electro-mechanical.make_contact;hachureGap=4;strokeColor=#FF0000;rotation=-90;" vertex="1" parent="1">
          <mxGeometry x="524.5" y="283.75" width="89" height="16" as="geometry" />
        </mxCell>
        <mxCell id="ipujFhg_b4CowNk_k0kt-8" value="&lt;span style=&quot;font-size: 10px&quot;&gt;L3&lt;/span&gt;" style="text;html=1;strokeColor=none;fillColor=none;align=center;verticalAlign=middle;whiteSpace=wrap;rounded=0;" vertex="1" parent="1">
          <mxGeometry x="587" y="700" width="40" height="20" as="geometry" />
        </mxCell>
        <mxCell id="ipujFhg_b4CowNk_k0kt-11" value="" style="endArrow=none;html=1;strokeColor=#00CC66;" edge="1" parent="1">
          <mxGeometry width="50" height="50" relative="1" as="geometry">
            <mxPoint x="587.46" y="721.8000000000003" as="sourcePoint" />
            <mxPoint x="587.2600000000002" y="593.9999999999995" as="targetPoint" />
            <Array as="points" />
          </mxGeometry>
        </mxCell>
        <mxCell id="ipujFhg_b4CowNk_k0kt-7" value="" style="pointerEvents=1;verticalLabelPosition=bottom;shadow=0;dashed=0;align=center;html=1;verticalAlign=top;shape=mxgraph.electrical.miscellaneous.light_bulb;strokeColor=#000000;rotation=-180;" vertex="1" parent="1">
          <mxGeometry x="575.5" y="680" width="24" height="20" as="geometry" />
        </mxCell>
      </root>
    </mxGraphModel>
  </diagram>
</mxfile>
